<?xml version="1.0" encoding="UTF-8"?>
<svg xmlns="http://www.w3.org/2000/svg" version="1.1" width="300" height="300" viewBox="0 0 300 300"><rect x="0" y="0" width="300" height="300" fill="#ffffff"/><g transform="scale(12)"><g transform="translate(2,2)"><path fill-rule="evenodd" d="M8 0L8 1L10 1L10 0ZM12 0L12 1L13 1L13 0ZM8 2L8 5L11 5L11 4L13 4L13 3L12 3L12 2L10 2L10 3L9 3L9 2ZM10 3L10 4L11 4L11 3ZM8 6L8 7L9 7L9 8L8 8L8 9L7 9L7 8L6 8L6 9L7 9L7 10L6 10L6 11L5 11L5 9L4 9L4 8L0 8L0 9L3 9L3 10L2 10L2 11L1 11L1 12L0 12L0 13L2 13L2 12L3 12L3 11L4 11L4 12L6 12L6 13L7 13L7 12L6 12L6 11L8 11L8 12L9 12L9 13L8 13L8 14L9 14L9 17L8 17L8 21L9 21L9 20L11 20L11 21L13 21L13 20L11 20L11 19L9 19L9 18L10 18L10 17L12 17L12 18L14 18L14 17L16 17L16 18L15 18L15 21L16 21L16 19L17 19L17 20L18 20L18 21L20 21L20 20L19 20L19 18L20 18L20 17L19 17L19 18L18 18L18 19L17 19L17 16L21 16L21 15L19 15L19 14L21 14L21 13L19 13L19 11L18 11L18 10L19 10L19 8L16 8L16 9L14 9L14 8L13 8L13 6L12 6L12 8L13 8L13 9L12 9L12 10L11 10L11 6L10 6L10 7L9 7L9 6ZM9 8L9 9L8 9L8 11L9 11L9 12L10 12L10 11L9 11L9 10L10 10L10 8ZM20 8L20 12L21 12L21 8ZM13 9L13 10L14 10L14 11L15 11L15 12L12 12L12 11L11 11L11 12L12 12L12 13L13 13L13 14L10 14L10 16L11 16L11 15L12 15L12 17L14 17L14 16L17 16L17 15L15 15L15 14L17 14L17 13L18 13L18 12L17 12L17 9L16 9L16 10L14 10L14 9ZM15 12L15 13L14 13L14 14L13 14L13 15L14 15L14 14L15 14L15 13L16 13L16 12ZM0 0L0 7L7 7L7 0ZM1 1L1 6L6 6L6 1ZM2 2L2 5L5 5L5 2ZM14 0L14 7L21 7L21 0ZM15 1L15 6L20 6L20 1ZM16 2L16 5L19 5L19 2ZM0 14L0 21L7 21L7 14ZM1 15L1 20L6 20L6 15ZM2 16L2 19L5 19L5 16Z" fill="#000000"/></g></g></svg>
