<?xml version="1.0" encoding="UTF-8"?>
<svg xmlns="http://www.w3.org/2000/svg" version="1.1" width="300" height="300" viewBox="0 0 300 300"><rect x="0" y="0" width="300" height="300" fill="#ffffff"/><g transform="scale(12)"><g transform="translate(2,2)"><path fill-rule="evenodd" d="M10 0L10 1L11 1L11 0ZM12 0L12 2L13 2L13 0ZM8 2L8 3L9 3L9 2ZM10 2L10 3L11 3L11 2ZM12 3L12 4L11 4L11 5L10 5L10 4L9 4L9 6L8 6L8 8L4 8L4 9L3 9L3 8L0 8L0 9L2 9L2 11L1 11L1 10L0 10L0 11L1 11L1 13L4 13L4 12L5 12L5 13L7 13L7 12L6 12L6 11L7 11L7 10L6 10L6 11L5 11L5 9L8 9L8 10L10 10L10 14L9 14L9 13L8 13L8 17L9 17L9 18L8 18L8 21L10 21L10 19L9 19L9 18L10 18L10 16L9 16L9 15L10 15L10 14L12 14L12 15L11 15L11 16L12 16L12 17L11 17L11 18L12 18L12 19L13 19L13 21L16 21L16 20L17 20L17 21L19 21L19 20L20 20L20 21L21 21L21 18L20 18L20 17L19 17L19 16L20 16L20 15L21 15L21 14L19 14L19 12L18 12L18 11L17 11L17 10L19 10L19 11L20 11L20 13L21 13L21 10L19 10L19 8L18 8L18 9L17 9L17 10L16 10L16 11L17 11L17 12L18 12L18 13L17 13L17 15L18 15L18 14L19 14L19 16L18 16L18 17L19 17L19 18L17 18L17 19L15 19L15 17L16 17L16 16L15 16L15 17L13 17L13 16L14 16L14 15L13 15L13 14L14 14L14 13L15 13L15 15L16 15L16 13L15 13L15 12L14 12L14 13L13 13L13 14L12 14L12 12L13 12L13 11L15 11L15 10L14 10L14 9L15 9L15 8L12 8L12 9L11 9L11 6L12 6L12 7L13 7L13 6L12 6L12 5L13 5L13 3ZM9 6L9 9L10 9L10 10L11 10L11 9L10 9L10 6ZM12 9L12 11L13 11L13 9ZM2 11L2 12L3 12L3 11ZM8 11L8 12L9 12L9 11ZM12 15L12 16L13 16L13 15ZM12 17L12 18L13 18L13 17ZM19 18L19 19L17 19L17 20L19 20L19 19L20 19L20 18ZM14 19L14 20L15 20L15 19ZM0 0L0 7L7 7L7 0ZM1 1L1 6L6 6L6 1ZM2 2L2 5L5 5L5 2ZM14 0L14 7L21 7L21 0ZM15 1L15 6L20 6L20 1ZM16 2L16 5L19 5L19 2ZM0 14L0 21L7 21L7 14ZM1 15L1 20L6 20L6 15ZM2 16L2 19L5 19L5 16Z" fill="#000000"/></g></g></svg>
