<?xml version="1.0" encoding="UTF-8"?>
<svg xmlns="http://www.w3.org/2000/svg" version="1.1" width="300" height="300" viewBox="0 0 300 300"><rect x="0" y="0" width="300" height="300" fill="#ffffff"/><g transform="scale(12)"><g transform="translate(2,2)"><path fill-rule="evenodd" d="M8 0L8 1L9 1L9 2L8 2L8 5L11 5L11 4L12 4L12 3L13 3L13 0L12 0L12 3L11 3L11 2L10 2L10 0ZM9 2L9 4L11 4L11 3L10 3L10 2ZM8 6L8 7L9 7L9 8L8 8L8 9L7 9L7 8L6 8L6 9L7 9L7 10L6 10L6 11L5 11L5 12L4 12L4 11L1 11L1 13L2 13L2 12L3 12L3 13L7 13L7 12L6 12L6 11L8 11L8 9L9 9L9 12L10 12L10 14L12 14L12 12L14 12L14 14L13 14L13 15L12 15L12 18L14 18L14 17L15 17L15 18L16 18L16 19L17 19L17 20L16 20L16 21L17 21L17 20L18 20L18 21L20 21L20 20L19 20L19 19L18 19L18 18L16 18L16 17L17 17L17 16L18 16L18 15L21 15L21 14L20 14L20 13L21 13L21 12L20 12L20 11L21 11L21 8L20 8L20 9L19 9L19 8L16 8L16 9L19 9L19 11L17 11L17 13L15 13L15 12L14 12L14 11L15 11L15 9L14 9L14 8L13 8L13 9L12 9L12 12L11 12L11 11L10 11L10 10L11 10L11 6L10 6L10 7L9 7L9 6ZM12 6L12 7L13 7L13 6ZM0 8L0 9L1 9L1 10L3 10L3 9L4 9L4 10L5 10L5 9L4 9L4 8ZM9 8L9 9L10 9L10 8ZM13 10L13 11L14 11L14 10ZM18 12L18 13L17 13L17 14L19 14L19 12ZM8 13L8 14L9 14L9 13ZM14 14L14 15L13 15L13 16L16 16L16 14ZM9 15L9 17L8 17L8 21L12 21L12 20L14 20L14 21L15 21L15 19L10 19L10 20L9 20L9 17L10 17L10 18L11 18L11 16L10 16L10 15ZM19 17L19 18L20 18L20 17ZM0 0L0 7L7 7L7 0ZM1 1L1 6L6 6L6 1ZM2 2L2 5L5 5L5 2ZM14 0L14 7L21 7L21 0ZM15 1L15 6L20 6L20 1ZM16 2L16 5L19 5L19 2ZM0 14L0 21L7 21L7 14ZM1 15L1 20L6 20L6 15ZM2 16L2 19L5 19L5 16Z" fill="#000000"/></g></g></svg>
