<?xml version="1.0" encoding="UTF-8"?>
<svg xmlns="http://www.w3.org/2000/svg" version="1.1" width="300" height="300" viewBox="0 0 300 300"><rect x="0" y="0" width="300" height="300" fill="#ffffff"/><g transform="scale(12)"><g transform="translate(2,2)"><path fill-rule="evenodd" d="M8 0L8 2L9 2L9 4L8 4L8 9L7 9L7 8L5 8L5 9L3 9L3 8L0 8L0 10L2 10L2 13L5 13L5 12L6 12L6 13L8 13L8 14L10 14L10 15L14 15L14 14L11 14L11 13L8 13L8 12L10 12L10 11L8 11L8 12L6 12L6 11L7 11L7 10L10 10L10 9L15 9L15 10L14 10L14 11L12 11L12 12L13 12L13 13L15 13L15 15L17 15L17 18L16 18L16 17L14 17L14 16L9 16L9 15L8 15L8 16L9 16L9 18L8 18L8 21L12 21L12 19L13 19L13 18L10 18L10 17L14 17L14 19L15 19L15 20L14 20L14 21L15 21L15 20L16 20L16 21L17 21L17 20L18 20L18 21L21 21L21 18L18 18L18 17L20 17L20 16L18 16L18 15L17 15L17 13L18 13L18 14L20 14L20 15L21 15L21 14L20 14L20 13L21 13L21 8L19 8L19 9L18 9L18 10L16 10L16 9L17 9L17 8L12 8L12 7L13 7L13 6L12 6L12 7L11 7L11 5L10 5L10 7L9 7L9 4L10 4L10 3L11 3L11 4L12 4L12 5L13 5L13 3L12 3L12 2L13 2L13 0ZM10 1L10 2L11 2L11 1ZM2 9L2 10L3 10L3 11L4 11L4 10L3 10L3 9ZM5 9L5 11L6 11L6 10L7 10L7 9ZM19 9L19 10L18 10L18 11L14 11L14 12L15 12L15 13L16 13L16 12L20 12L20 9ZM0 12L0 13L1 13L1 12ZM15 18L15 19L16 19L16 18ZM17 18L17 19L18 19L18 20L20 20L20 19L18 19L18 18ZM9 19L9 20L11 20L11 19ZM0 0L0 7L7 7L7 0ZM1 1L1 6L6 6L6 1ZM2 2L2 5L5 5L5 2ZM14 0L14 7L21 7L21 0ZM15 1L15 6L20 6L20 1ZM16 2L16 5L19 5L19 2ZM0 14L0 21L7 21L7 14ZM1 15L1 20L6 20L6 15ZM2 16L2 19L5 19L5 16Z" fill="#000000"/></g></g></svg>
