<?xml version="1.0" encoding="UTF-8"?>
<svg xmlns="http://www.w3.org/2000/svg" version="1.1" width="300" height="300" viewBox="0 0 300 300"><rect x="0" y="0" width="300" height="300" fill="#ffffff"/><g transform="scale(12)"><g transform="translate(2,2)"><path fill-rule="evenodd" d="M9 0L9 1L8 1L8 3L9 3L9 4L8 4L8 8L6 8L6 9L8 9L8 8L9 8L9 10L11 10L11 8L13 8L13 4L12 4L12 3L13 3L13 2L12 2L12 1L13 1L13 0L11 0L11 2L12 2L12 3L11 3L11 4L12 4L12 5L11 5L11 6L10 6L10 7L9 7L9 4L10 4L10 0ZM11 6L11 7L12 7L12 6ZM0 8L0 9L1 9L1 10L0 10L0 13L1 13L1 10L2 10L2 12L3 12L3 13L5 13L5 12L6 12L6 13L8 13L8 15L11 15L11 16L9 16L9 17L8 17L8 18L9 18L9 19L8 19L8 21L13 21L13 20L14 20L14 21L16 21L16 19L17 19L17 20L18 20L18 21L19 21L19 20L18 20L18 19L19 19L19 18L20 18L20 20L21 20L21 14L20 14L20 12L21 12L21 11L19 11L19 10L21 10L21 9L20 9L20 8L18 8L18 9L17 9L17 8L14 8L14 9L13 9L13 10L12 10L12 11L10 11L10 14L9 14L9 11L8 11L8 12L6 12L6 11L7 11L7 10L5 10L5 9L4 9L4 8L3 8L3 9L4 9L4 10L5 10L5 12L3 12L3 10L2 10L2 8ZM14 9L14 10L13 10L13 11L12 11L12 12L11 12L11 13L12 13L12 14L11 14L11 15L13 15L13 16L12 16L12 17L10 17L10 18L11 18L11 19L12 19L12 20L13 20L13 19L12 19L12 18L16 18L16 17L13 17L13 16L16 16L16 14L17 14L17 16L18 16L18 15L19 15L19 17L17 17L17 19L18 19L18 18L19 18L19 17L20 17L20 14L19 14L19 13L18 13L18 12L19 12L19 11L17 11L17 9ZM14 10L14 13L15 13L15 12L16 12L16 11L15 11L15 10ZM12 12L12 13L13 13L13 12ZM17 13L17 14L18 14L18 13ZM14 14L14 15L15 15L15 14ZM9 19L9 20L10 20L10 19ZM14 19L14 20L15 20L15 19ZM0 0L0 7L7 7L7 0ZM1 1L1 6L6 6L6 1ZM2 2L2 5L5 5L5 2ZM14 0L14 7L21 7L21 0ZM15 1L15 6L20 6L20 1ZM16 2L16 5L19 5L19 2ZM0 14L0 21L7 21L7 14ZM1 15L1 20L6 20L6 15ZM2 16L2 19L5 19L5 16Z" fill="#000000"/></g></g></svg>
