<?xml version="1.0" encoding="UTF-8"?>
<svg xmlns="http://www.w3.org/2000/svg" version="1.1" width="300" height="300" viewBox="0 0 300 300"><rect x="0" y="0" width="300" height="300" fill="#ffffff"/><g transform="scale(12)"><g transform="translate(2,2)"><path fill-rule="evenodd" d="M8 0L8 4L9 4L9 5L8 5L8 7L9 7L9 5L10 5L10 7L11 7L11 5L12 5L12 7L13 7L13 2L12 2L12 1L13 1L13 0L12 0L12 1L11 1L11 2L10 2L10 1L9 1L9 0ZM9 3L9 4L10 4L10 3ZM11 3L11 4L12 4L12 3ZM0 8L0 10L1 10L1 11L0 11L0 13L1 13L1 12L2 12L2 13L4 13L4 12L5 12L5 11L9 11L9 12L10 12L10 11L11 11L11 14L10 14L10 13L8 13L8 14L10 14L10 15L8 15L8 17L9 17L9 18L10 18L10 20L9 20L9 19L8 19L8 21L10 21L10 20L11 20L11 21L12 21L12 20L13 20L13 19L14 19L14 18L16 18L16 19L15 19L15 20L14 20L14 21L16 21L16 20L18 20L18 21L21 21L21 19L20 19L20 20L18 20L18 19L19 19L19 18L21 18L21 16L20 16L20 15L21 15L21 14L20 14L20 13L19 13L19 12L18 12L18 11L17 11L17 10L16 10L16 8L15 8L15 10L16 10L16 11L17 11L17 12L18 12L18 17L17 17L17 18L16 18L16 17L15 17L15 16L17 16L17 15L16 15L16 13L15 13L15 12L13 12L13 10L14 10L14 9L13 9L13 8L12 8L12 11L11 11L11 10L10 10L10 11L9 11L9 9L8 9L8 10L6 10L6 9L7 9L7 8L4 8L4 9L5 9L5 11L4 11L4 10L3 10L3 9L2 9L2 8ZM17 8L17 9L19 9L19 10L21 10L21 8ZM2 11L2 12L3 12L3 11ZM6 12L6 13L7 13L7 12ZM12 12L12 13L13 13L13 14L12 14L12 15L11 15L11 16L10 16L10 18L11 18L11 19L12 19L12 16L13 16L13 15L14 15L14 14L15 14L15 13L13 13L13 12ZM19 14L19 15L20 15L20 14ZM19 16L19 17L18 17L18 18L19 18L19 17L20 17L20 16ZM0 0L0 7L7 7L7 0ZM1 1L1 6L6 6L6 1ZM2 2L2 5L5 5L5 2ZM14 0L14 7L21 7L21 0ZM15 1L15 6L20 6L20 1ZM16 2L16 5L19 5L19 2ZM0 14L0 21L7 21L7 14ZM1 15L1 20L6 20L6 15ZM2 16L2 19L5 19L5 16Z" fill="#000000"/></g></g></svg>
