<?xml version="1.0" encoding="UTF-8"?>
<svg xmlns="http://www.w3.org/2000/svg" version="1.1" width="300" height="300" viewBox="0 0 300 300"><rect x="0" y="0" width="300" height="300" fill="#ffffff"/><g transform="scale(12)"><g transform="translate(2,2)"><path fill-rule="evenodd" d="M8 0L8 4L9 4L9 5L8 5L8 7L9 7L9 5L10 5L10 7L11 7L11 5L12 5L12 7L13 7L13 2L12 2L12 1L13 1L13 0L12 0L12 1L11 1L11 2L10 2L10 1L9 1L9 0ZM9 3L9 4L10 4L10 3ZM11 3L11 4L12 4L12 3ZM0 8L0 10L2 10L2 11L0 11L0 13L2 13L2 11L3 11L3 13L4 13L4 12L6 12L6 13L7 13L7 12L6 12L6 11L8 11L8 10L9 10L9 11L10 11L10 15L11 15L11 17L10 17L10 16L9 16L9 15L8 15L8 17L10 17L10 18L11 18L11 19L8 19L8 21L10 21L10 20L11 20L11 21L13 21L13 20L14 20L14 19L13 19L13 18L16 18L16 19L15 19L15 21L16 21L16 19L17 19L17 20L19 20L19 21L21 21L21 19L20 19L20 20L19 20L19 19L18 19L18 18L21 18L21 17L20 17L20 16L19 16L19 15L21 15L21 11L20 11L20 9L21 9L21 8L17 8L17 9L19 9L19 11L18 11L18 12L17 12L17 13L16 13L16 11L17 11L17 10L15 10L15 9L16 9L16 8L15 8L15 9L13 9L13 8L12 8L12 11L11 11L11 10L9 10L9 9L8 9L8 10L6 10L6 9L7 9L7 8L4 8L4 9L3 9L3 10L2 10L2 8ZM4 9L4 10L5 10L5 11L6 11L6 10L5 10L5 9ZM13 10L13 12L12 12L12 13L11 13L11 14L12 14L12 17L11 17L11 18L13 18L13 16L18 16L18 14L17 14L17 15L15 15L15 14L12 14L12 13L13 13L13 12L15 12L15 10ZM18 12L18 13L19 13L19 14L20 14L20 13L19 13L19 12ZM8 13L8 14L9 14L9 13ZM16 17L16 18L17 18L17 17ZM0 0L0 7L7 7L7 0ZM1 1L1 6L6 6L6 1ZM2 2L2 5L5 5L5 2ZM14 0L14 7L21 7L21 0ZM15 1L15 6L20 6L20 1ZM16 2L16 5L19 5L19 2ZM0 14L0 21L7 21L7 14ZM1 15L1 20L6 20L6 15ZM2 16L2 19L5 19L5 16Z" fill="#000000"/></g></g></svg>
