<?xml version="1.0" encoding="UTF-8"?>
<svg xmlns="http://www.w3.org/2000/svg" version="1.1" width="300" height="300" viewBox="0 0 300 300"><rect x="0" y="0" width="300" height="300" fill="#ffffff"/><g transform="scale(12)"><g transform="translate(2,2)"><path fill-rule="evenodd" d="M8 0L8 1L9 1L9 2L8 2L8 5L11 5L11 4L12 4L12 3L13 3L13 0L12 0L12 3L11 3L11 2L10 2L10 0ZM9 2L9 4L11 4L11 3L10 3L10 2ZM8 6L8 7L9 7L9 8L8 8L8 9L7 9L7 8L6 8L6 9L7 9L7 10L5 10L5 9L4 9L4 8L0 8L0 9L2 9L2 11L7 11L7 12L5 12L5 13L7 13L7 12L8 12L8 11L9 11L9 12L11 12L11 13L12 13L12 12L14 12L14 11L15 11L15 14L14 14L14 13L13 13L13 15L11 15L11 14L10 14L10 15L9 15L9 16L10 16L10 18L9 18L9 17L8 17L8 21L13 21L13 19L14 19L14 20L15 20L15 21L17 21L17 20L18 20L18 19L17 19L17 20L15 20L15 19L14 19L14 17L15 17L15 18L20 18L20 17L21 17L21 16L20 16L20 15L21 15L21 14L20 14L20 13L19 13L19 17L18 17L18 13L17 13L17 17L15 17L15 16L16 16L16 15L15 15L15 14L16 14L16 10L15 10L15 9L14 9L14 8L13 8L13 9L12 9L12 12L11 12L11 11L10 11L10 10L9 10L9 8L10 8L10 9L11 9L11 6L10 6L10 7L9 7L9 6ZM12 6L12 7L13 7L13 6ZM16 8L16 9L19 9L19 8ZM20 8L20 9L21 9L21 8ZM3 9L3 10L4 10L4 9ZM13 9L13 11L14 11L14 9ZM7 10L7 11L8 11L8 10ZM17 10L17 12L19 12L19 11L20 11L20 12L21 12L21 11L20 11L20 10L19 10L19 11L18 11L18 10ZM0 11L0 13L1 13L1 11ZM2 12L2 13L4 13L4 12ZM8 13L8 14L9 14L9 13ZM10 15L10 16L11 16L11 15ZM12 16L12 17L11 17L11 18L12 18L12 19L13 19L13 17L14 17L14 16ZM10 19L10 20L11 20L11 19ZM19 20L19 21L20 21L20 20ZM0 0L0 7L7 7L7 0ZM1 1L1 6L6 6L6 1ZM2 2L2 5L5 5L5 2ZM14 0L14 7L21 7L21 0ZM15 1L15 6L20 6L20 1ZM16 2L16 5L19 5L19 2ZM0 14L0 21L7 21L7 14ZM1 15L1 20L6 20L6 15ZM2 16L2 19L5 19L5 16Z" fill="#000000"/></g></g></svg>
