<?xml version="1.0" encoding="UTF-8"?>
<svg xmlns="http://www.w3.org/2000/svg" version="1.1" width="300" height="300" viewBox="0 0 300 300"><rect x="0" y="0" width="300" height="300" fill="#ffffff"/><g transform="scale(12)"><g transform="translate(2,2)"><path fill-rule="evenodd" d="M8 0L8 2L9 2L9 4L8 4L8 9L7 9L7 8L5 8L5 9L4 9L4 10L3 10L3 11L2 11L2 12L1 12L1 11L0 11L0 12L1 12L1 13L2 13L2 12L3 12L3 13L7 13L7 12L6 12L6 11L7 11L7 10L10 10L10 11L9 11L9 12L8 12L8 14L9 14L9 13L10 13L10 12L11 12L11 10L10 10L10 9L17 9L17 8L12 8L12 7L13 7L13 6L12 6L12 7L11 7L11 5L10 5L10 7L9 7L9 4L10 4L10 3L11 3L11 4L12 4L12 5L13 5L13 3L12 3L12 2L13 2L13 0ZM10 1L10 2L11 2L11 1ZM0 8L0 9L1 9L1 10L2 10L2 9L3 9L3 8ZM19 8L19 9L18 9L18 10L13 10L13 11L12 11L12 12L13 12L13 13L15 13L15 15L14 15L14 14L11 14L11 15L13 15L13 16L10 16L10 17L9 17L9 18L8 18L8 21L12 21L12 19L13 19L13 18L14 18L14 19L16 19L16 20L14 20L14 21L16 21L16 20L17 20L17 21L18 21L18 19L20 19L20 20L19 20L19 21L21 21L21 18L19 18L19 17L20 17L20 16L19 16L19 17L18 17L18 15L17 15L17 13L18 13L18 14L19 14L19 15L21 15L21 12L19 12L19 13L18 13L18 12L17 12L17 11L18 11L18 10L19 10L19 9L21 9L21 8ZM5 9L5 10L4 10L4 11L6 11L6 10L7 10L7 9ZM13 11L13 12L16 12L16 11ZM19 13L19 14L20 14L20 13ZM8 15L8 16L9 16L9 15ZM15 15L15 16L14 16L14 18L15 18L15 16L17 16L17 15ZM10 17L10 19L9 19L9 20L11 20L11 18L13 18L13 17ZM16 17L16 18L17 18L17 17ZM0 0L0 7L7 7L7 0ZM1 1L1 6L6 6L6 1ZM2 2L2 5L5 5L5 2ZM14 0L14 7L21 7L21 0ZM15 1L15 6L20 6L20 1ZM16 2L16 5L19 5L19 2ZM0 14L0 21L7 21L7 14ZM1 15L1 20L6 20L6 15ZM2 16L2 19L5 19L5 16Z" fill="#000000"/></g></g></svg>
