<?xml version="1.0" encoding="UTF-8"?>
<svg xmlns="http://www.w3.org/2000/svg" version="1.1" width="300" height="300" viewBox="0 0 300 300"><rect x="0" y="0" width="300" height="300" fill="#ffffff"/><g transform="scale(12)"><g transform="translate(2,2)"><path fill-rule="evenodd" d="M8 0L8 4L9 4L9 5L8 5L8 7L9 7L9 5L10 5L10 7L11 7L11 5L12 5L12 7L13 7L13 2L12 2L12 1L13 1L13 0L12 0L12 1L11 1L11 2L10 2L10 1L9 1L9 0ZM9 3L9 4L10 4L10 3ZM11 3L11 4L12 4L12 3ZM0 8L0 11L1 11L1 12L0 12L0 13L1 13L1 12L6 12L6 13L7 13L7 12L8 12L8 14L10 14L10 16L11 16L11 17L12 17L12 14L15 14L15 15L17 15L17 13L16 13L16 11L20 11L20 12L19 12L19 14L18 14L18 16L17 16L17 18L21 18L21 17L20 17L20 16L19 16L19 15L21 15L21 11L20 11L20 10L15 10L15 9L16 9L16 8L15 8L15 9L13 9L13 8L12 8L12 11L11 11L11 13L10 13L10 12L8 12L8 11L7 11L7 10L6 10L6 11L4 11L4 9L7 9L7 8L4 8L4 9L3 9L3 10L1 10L1 9L2 9L2 8ZM17 8L17 9L21 9L21 8ZM9 10L9 11L10 11L10 10ZM13 10L13 12L12 12L12 13L11 13L11 14L12 14L12 13L13 13L13 12L15 12L15 10ZM6 11L6 12L7 12L7 11ZM8 15L8 17L9 17L9 19L8 19L8 21L10 21L10 20L9 20L9 19L10 19L10 17L9 17L9 15ZM13 16L13 18L11 18L11 21L13 21L13 20L14 20L14 19L13 19L13 18L16 18L16 16ZM15 19L15 20L16 20L16 21L21 21L21 19L20 19L20 20L17 20L17 19ZM0 0L0 7L7 7L7 0ZM1 1L1 6L6 6L6 1ZM2 2L2 5L5 5L5 2ZM14 0L14 7L21 7L21 0ZM15 1L15 6L20 6L20 1ZM16 2L16 5L19 5L19 2ZM0 14L0 21L7 21L7 14ZM1 15L1 20L6 20L6 15ZM2 16L2 19L5 19L5 16Z" fill="#000000"/></g></g></svg>
