<?xml version="1.0" encoding="UTF-8"?>
<svg xmlns="http://www.w3.org/2000/svg" version="1.1" width="300" height="300" viewBox="0 0 300 300"><rect x="0" y="0" width="300" height="300" fill="#ffffff"/><g transform="scale(12)"><g transform="translate(2,2)"><path fill-rule="evenodd" d="M8 0L8 1L9 1L9 2L8 2L8 5L12 5L12 3L13 3L13 0L12 0L12 3L11 3L11 2L10 2L10 0ZM9 2L9 4L11 4L11 3L10 3L10 2ZM8 6L8 7L9 7L9 8L8 8L8 9L9 9L9 10L6 10L6 11L5 11L5 10L4 10L4 11L3 11L3 9L4 9L4 8L0 8L0 9L2 9L2 10L1 10L1 12L0 12L0 13L1 13L1 12L3 12L3 13L5 13L5 12L6 12L6 13L7 13L7 12L6 12L6 11L10 11L10 9L11 9L11 8L12 8L12 7L13 7L13 6L12 6L12 7L11 7L11 6L10 6L10 7L9 7L9 6ZM6 8L6 9L7 9L7 8ZM9 8L9 9L10 9L10 8ZM13 8L13 9L14 9L14 8ZM16 8L16 9L15 9L15 10L14 10L14 11L12 11L12 12L14 12L14 14L13 14L13 15L11 15L11 16L9 16L9 17L8 17L8 21L10 21L10 20L9 20L9 17L11 17L11 18L10 18L10 19L14 19L14 20L15 20L15 21L18 21L18 20L19 20L19 21L20 21L20 20L19 20L19 18L20 18L20 17L19 17L19 18L18 18L18 17L17 17L17 16L16 16L16 14L17 14L17 15L18 15L18 16L19 16L19 15L20 15L20 16L21 16L21 15L20 15L20 13L21 13L21 12L20 12L20 11L21 11L21 8L20 8L20 9L19 9L19 8ZM16 9L16 10L15 10L15 11L14 11L14 12L15 12L15 14L14 14L14 15L15 15L15 14L16 14L16 13L19 13L19 11L17 11L17 10L19 10L19 9ZM4 11L4 12L5 12L5 11ZM9 12L9 13L8 13L8 14L9 14L9 15L10 15L10 14L11 14L11 13L10 13L10 12ZM9 13L9 14L10 14L10 13ZM11 16L11 17L14 17L14 16ZM15 16L15 18L14 18L14 19L16 19L16 16ZM17 18L17 20L18 20L18 18ZM12 20L12 21L13 21L13 20ZM0 0L0 7L7 7L7 0ZM1 1L1 6L6 6L6 1ZM2 2L2 5L5 5L5 2ZM14 0L14 7L21 7L21 0ZM15 1L15 6L20 6L20 1ZM16 2L16 5L19 5L19 2ZM0 14L0 21L7 21L7 14ZM1 15L1 20L6 20L6 15ZM2 16L2 19L5 19L5 16Z" fill="#000000"/></g></g></svg>
