<?xml version="1.0" encoding="UTF-8"?>
<svg xmlns="http://www.w3.org/2000/svg" version="1.1" width="300" height="300" viewBox="0 0 300 300"><rect x="0" y="0" width="300" height="300" fill="#ffffff"/><g transform="scale(12)"><g transform="translate(2,2)"><path fill-rule="evenodd" d="M10 0L10 1L11 1L11 0ZM12 0L12 2L13 2L13 0ZM8 2L8 3L9 3L9 2ZM10 2L10 3L11 3L11 2ZM12 3L12 4L11 4L11 5L10 5L10 4L9 4L9 6L8 6L8 8L4 8L4 9L5 9L5 10L2 10L2 11L3 11L3 13L8 13L8 17L9 17L9 18L8 18L8 21L9 21L9 19L10 19L10 21L11 21L11 19L10 19L10 18L12 18L12 19L13 19L13 21L15 21L15 20L14 20L14 19L15 19L15 18L20 18L20 19L18 19L18 20L20 20L20 21L21 21L21 18L20 18L20 17L18 17L18 16L20 16L20 15L21 15L21 14L20 14L20 13L21 13L21 10L20 10L20 9L19 9L19 8L18 8L18 9L17 9L17 10L16 10L16 9L15 9L15 8L12 8L12 9L11 9L11 6L12 6L12 7L13 7L13 6L12 6L12 5L13 5L13 3ZM9 6L9 9L6 9L6 10L5 10L5 11L4 11L4 12L5 12L5 11L6 11L6 12L7 12L7 11L9 11L9 12L8 12L8 13L9 13L9 14L10 14L10 15L9 15L9 17L10 17L10 16L11 16L11 17L12 17L12 18L15 18L15 17L16 17L16 16L17 16L17 15L19 15L19 14L17 14L17 15L16 15L16 12L15 12L15 11L16 11L16 10L15 10L15 9L14 9L14 10L13 10L13 9L12 9L12 11L14 11L14 12L12 12L12 14L11 14L11 12L10 12L10 11L11 11L11 9L10 9L10 6ZM0 8L0 9L3 9L3 8ZM9 9L9 11L10 11L10 9ZM6 10L6 11L7 11L7 10ZM14 10L14 11L15 11L15 10ZM17 10L17 11L18 11L18 12L17 12L17 13L19 13L19 12L20 12L20 11L19 11L19 10ZM1 12L1 13L2 13L2 12ZM9 12L9 13L10 13L10 12ZM14 12L14 13L13 13L13 14L12 14L12 15L11 15L11 16L12 16L12 17L13 17L13 16L12 16L12 15L13 15L13 14L14 14L14 13L15 13L15 12ZM14 15L14 16L16 16L16 15ZM16 20L16 21L17 21L17 20ZM0 0L0 7L7 7L7 0ZM1 1L1 6L6 6L6 1ZM2 2L2 5L5 5L5 2ZM14 0L14 7L21 7L21 0ZM15 1L15 6L20 6L20 1ZM16 2L16 5L19 5L19 2ZM0 14L0 21L7 21L7 14ZM1 15L1 20L6 20L6 15ZM2 16L2 19L5 19L5 16Z" fill="#000000"/></g></g></svg>
