<?xml version="1.0" encoding="UTF-8"?>
<svg xmlns="http://www.w3.org/2000/svg" version="1.1" width="300" height="300" viewBox="0 0 300 300"><rect x="0" y="0" width="300" height="300" fill="#ffffff"/><g transform="scale(12)"><g transform="translate(2,2)"><path fill-rule="evenodd" d="M8 0L8 1L9 1L9 0ZM10 0L10 2L8 2L8 5L9 5L9 6L8 6L8 7L9 7L9 6L10 6L10 7L11 7L11 8L8 8L8 10L10 10L10 9L11 9L11 12L10 12L10 13L8 13L8 11L7 11L7 10L6 10L6 9L7 9L7 8L6 8L6 9L4 9L4 8L0 8L0 10L2 10L2 11L0 11L0 13L1 13L1 12L2 12L2 13L5 13L5 11L3 11L3 10L6 10L6 11L7 11L7 12L6 12L6 13L8 13L8 14L9 14L9 17L8 17L8 21L9 21L9 19L10 19L10 21L11 21L11 19L10 19L10 18L12 18L12 19L13 19L13 21L14 21L14 19L16 19L16 20L17 20L17 19L16 19L16 18L18 18L18 19L19 19L19 18L20 18L20 17L21 17L21 15L20 15L20 13L21 13L21 10L20 10L20 9L21 9L21 8L20 8L20 9L19 9L19 8L16 8L16 9L14 9L14 8L13 8L13 5L12 5L12 4L13 4L13 3L12 3L12 1L13 1L13 0ZM10 2L10 4L9 4L9 5L11 5L11 4L12 4L12 3L11 3L11 2ZM11 6L11 7L12 7L12 6ZM2 9L2 10L3 10L3 9ZM13 9L13 10L12 10L12 12L11 12L11 13L12 13L12 14L14 14L14 15L11 15L11 14L10 14L10 16L11 16L11 17L12 17L12 18L13 18L13 19L14 19L14 16L15 16L15 17L17 17L17 15L16 15L16 14L17 14L17 12L18 12L18 11L20 11L20 10L16 10L16 11L14 11L14 9ZM2 11L2 12L3 12L3 11ZM13 11L13 12L12 12L12 13L13 13L13 12L14 12L14 14L16 14L16 12L14 12L14 11ZM19 12L19 13L20 13L20 12ZM18 14L18 15L19 15L19 16L20 16L20 15L19 15L19 14ZM12 16L12 17L13 17L13 16ZM18 20L18 21L20 21L20 20ZM0 0L0 7L7 7L7 0ZM1 1L1 6L6 6L6 1ZM2 2L2 5L5 5L5 2ZM14 0L14 7L21 7L21 0ZM15 1L15 6L20 6L20 1ZM16 2L16 5L19 5L19 2ZM0 14L0 21L7 21L7 14ZM1 15L1 20L6 20L6 15ZM2 16L2 19L5 19L5 16Z" fill="#000000"/></g></g></svg>
