<?xml version="1.0" encoding="UTF-8"?>
<svg xmlns="http://www.w3.org/2000/svg" version="1.1" width="300" height="300" viewBox="0 0 300 300"><rect x="0" y="0" width="300" height="300" fill="#ffffff"/><g transform="scale(12)"><g transform="translate(2,2)"><path fill-rule="evenodd" d="M12 0L12 2L11 2L11 1L10 1L10 4L9 4L9 3L8 3L8 5L9 5L9 6L8 6L8 7L9 7L9 6L10 6L10 7L11 7L11 6L12 6L12 7L13 7L13 6L12 6L12 5L13 5L13 0ZM11 3L11 4L10 4L10 6L11 6L11 5L12 5L12 3ZM0 8L0 12L2 12L2 13L3 13L3 12L4 12L4 13L5 13L5 11L7 11L7 12L6 12L6 13L7 13L7 12L8 12L8 10L9 10L9 12L10 12L10 10L9 10L9 9L8 9L8 8L5 8L5 9L4 9L4 10L3 10L3 9L2 9L2 8ZM11 8L11 10L12 10L12 11L11 11L11 13L12 13L12 14L10 14L10 15L12 15L12 14L13 14L13 13L14 13L14 12L13 12L13 9L12 9L12 8ZM16 8L16 9L17 9L17 11L15 11L15 15L14 15L14 16L15 16L15 17L12 17L12 16L11 16L11 17L10 17L10 16L9 16L9 13L8 13L8 16L9 16L9 19L8 19L8 21L9 21L9 19L10 19L10 21L11 21L11 20L12 20L12 21L13 21L13 20L17 20L17 18L18 18L18 20L19 20L19 19L20 19L20 20L21 20L21 18L19 18L19 17L20 17L20 16L17 16L17 14L16 14L16 12L17 12L17 11L19 11L19 10L21 10L21 9L18 9L18 8ZM1 9L1 10L2 10L2 9ZM5 9L5 10L8 10L8 9ZM2 11L2 12L3 12L3 11ZM20 11L20 12L18 12L18 13L19 13L19 14L18 14L18 15L19 15L19 14L21 14L21 13L20 13L20 12L21 12L21 11ZM16 16L16 17L15 17L15 18L14 18L14 19L16 19L16 18L17 18L17 16ZM10 18L10 19L11 19L11 18ZM0 0L0 7L7 7L7 0ZM1 1L1 6L6 6L6 1ZM2 2L2 5L5 5L5 2ZM14 0L14 7L21 7L21 0ZM15 1L15 6L20 6L20 1ZM16 2L16 5L19 5L19 2ZM0 14L0 21L7 21L7 14ZM1 15L1 20L6 20L6 15ZM2 16L2 19L5 19L5 16Z" fill="#000000"/></g></g></svg>
