<?xml version="1.0" encoding="UTF-8"?>
<svg xmlns="http://www.w3.org/2000/svg" version="1.1" width="300" height="300" viewBox="0 0 300 300"><rect x="0" y="0" width="300" height="300" fill="#ffffff"/><g transform="scale(12)"><g transform="translate(2,2)"><path fill-rule="evenodd" d="M10 0L10 1L8 1L8 2L10 2L10 3L8 3L8 4L9 4L9 5L8 5L8 7L9 7L9 8L6 8L6 9L5 9L5 8L0 8L0 9L3 9L3 11L2 11L2 10L1 10L1 11L0 11L0 13L7 13L7 12L12 12L12 14L10 14L10 15L9 15L9 13L8 13L8 15L9 15L9 16L8 16L8 21L9 21L9 20L10 20L10 21L11 21L11 20L12 20L12 21L13 21L13 20L15 20L15 18L16 18L16 16L15 16L15 17L12 17L12 16L10 16L10 15L12 15L12 14L13 14L13 9L14 9L14 10L17 10L17 11L15 11L15 12L14 12L14 13L16 13L16 12L17 12L17 13L19 13L19 14L18 14L18 15L19 15L19 14L21 14L21 11L20 11L20 13L19 13L19 12L17 12L17 11L19 11L19 10L20 10L20 8L19 8L19 9L18 9L18 8L17 8L17 9L16 9L16 8L15 8L15 9L14 9L14 8L13 8L13 9L12 9L12 8L11 8L11 9L9 9L9 8L10 8L10 7L11 7L11 6L12 6L12 7L13 7L13 6L12 6L12 5L13 5L13 0ZM11 1L11 2L12 2L12 1ZM10 3L10 5L9 5L9 7L10 7L10 6L11 6L11 5L12 5L12 3ZM4 9L4 10L5 10L5 12L7 12L7 11L6 11L6 10L7 10L7 9L6 9L6 10L5 10L5 9ZM8 9L8 10L9 10L9 11L12 11L12 10L9 10L9 9ZM1 11L1 12L2 12L2 11ZM3 11L3 12L4 12L4 11ZM15 14L15 15L16 15L16 14ZM20 15L20 16L17 16L17 19L16 19L16 20L17 20L17 19L18 19L18 20L19 20L19 17L20 17L20 16L21 16L21 15ZM9 16L9 18L10 18L10 16ZM11 18L11 19L10 19L10 20L11 20L11 19L12 19L12 18ZM13 18L13 19L14 19L14 18ZM20 19L20 20L21 20L21 19ZM0 0L0 7L7 7L7 0ZM1 1L1 6L6 6L6 1ZM2 2L2 5L5 5L5 2ZM14 0L14 7L21 7L21 0ZM15 1L15 6L20 6L20 1ZM16 2L16 5L19 5L19 2ZM0 14L0 21L7 21L7 14ZM1 15L1 20L6 20L6 15ZM2 16L2 19L5 19L5 16Z" fill="#000000"/></g></g></svg>
