<?xml version="1.0" encoding="UTF-8"?>
<svg xmlns="http://www.w3.org/2000/svg" version="1.1" width="300" height="300" viewBox="0 0 300 300"><rect x="0" y="0" width="300" height="300" fill="#ffffff"/><g transform="scale(12)"><g transform="translate(2,2)"><path fill-rule="evenodd" d="M8 0L8 4L9 4L9 5L8 5L8 7L9 7L9 5L10 5L10 7L11 7L11 8L13 8L13 2L12 2L12 1L13 1L13 0L12 0L12 1L11 1L11 2L10 2L10 1L9 1L9 0ZM9 3L9 4L10 4L10 3ZM11 3L11 7L12 7L12 3ZM0 8L0 9L2 9L2 8ZM4 8L4 9L3 9L3 10L1 10L1 11L0 11L0 12L1 12L1 11L4 11L4 12L5 12L5 11L4 11L4 9L5 9L5 10L6 10L6 11L8 11L8 12L9 12L9 13L8 13L8 14L9 14L9 15L8 15L8 17L9 17L9 15L10 15L10 17L11 17L11 18L9 18L9 19L8 19L8 21L10 21L10 20L11 20L11 18L12 18L12 17L13 17L13 19L14 19L14 17L15 17L15 20L14 20L14 21L15 21L15 20L16 20L16 21L17 21L17 20L16 20L16 19L18 19L18 17L17 17L17 18L16 18L16 17L15 17L15 16L17 16L17 15L13 15L13 16L12 16L12 14L15 14L15 13L16 13L16 14L17 14L17 13L16 13L16 11L17 11L17 12L18 12L18 11L19 11L19 10L20 10L20 11L21 11L21 8L17 8L17 9L19 9L19 10L15 10L15 9L16 9L16 8L15 8L15 9L13 9L13 10L11 10L11 12L9 12L9 11L8 11L8 10L10 10L10 9L8 9L8 10L6 10L6 9L7 9L7 8ZM13 10L13 11L12 11L12 12L11 12L11 13L9 13L9 14L11 14L11 13L13 13L13 12L14 12L14 13L15 13L15 10ZM2 12L2 13L3 13L3 12ZM6 12L6 13L7 13L7 12ZM19 12L19 14L18 14L18 15L19 15L19 14L20 14L20 13L21 13L21 12ZM20 15L20 16L19 16L19 18L21 18L21 17L20 17L20 16L21 16L21 15ZM20 19L20 20L19 20L19 21L21 21L21 19ZM0 0L0 7L7 7L7 0ZM1 1L1 6L6 6L6 1ZM2 2L2 5L5 5L5 2ZM14 0L14 7L21 7L21 0ZM15 1L15 6L20 6L20 1ZM16 2L16 5L19 5L19 2ZM0 14L0 21L7 21L7 14ZM1 15L1 20L6 20L6 15ZM2 16L2 19L5 19L5 16Z" fill="#000000"/></g></g></svg>
