<?xml version="1.0" encoding="UTF-8"?>
<svg xmlns="http://www.w3.org/2000/svg" version="1.1" width="300" height="300" viewBox="0 0 300 300"><rect x="0" y="0" width="300" height="300" fill="#ffffff"/><g transform="scale(12)"><g transform="translate(2,2)"><path fill-rule="evenodd" d="M12 0L12 2L11 2L11 1L10 1L10 4L9 4L9 3L8 3L8 5L9 5L9 6L8 6L8 7L9 7L9 6L10 6L10 7L11 7L11 6L12 6L12 7L13 7L13 6L12 6L12 5L13 5L13 0ZM11 3L11 4L10 4L10 6L11 6L11 5L12 5L12 3ZM0 8L0 11L1 11L1 12L2 12L2 11L3 11L3 10L4 10L4 11L5 11L5 10L6 10L6 11L7 11L7 10L6 10L6 9L8 9L8 11L10 11L10 13L8 13L8 12L6 12L6 13L8 13L8 16L9 16L9 15L10 15L10 17L9 17L9 19L8 19L8 21L9 21L9 19L12 19L12 21L13 21L13 20L14 20L14 21L15 21L15 20L19 20L19 19L20 19L20 20L21 20L21 18L19 18L19 17L20 17L20 15L21 15L21 12L19 12L19 10L17 10L17 9L18 9L18 8L16 8L16 9L14 9L14 10L13 10L13 9L12 9L12 8L11 8L11 9L10 9L10 10L9 10L9 9L8 9L8 8L5 8L5 9L2 9L2 8ZM1 9L1 11L2 11L2 9ZM20 9L20 11L21 11L21 9ZM10 10L10 11L12 11L12 10ZM14 10L14 12L16 12L16 13L17 13L17 14L16 14L16 16L13 16L13 15L14 15L14 14L15 14L15 13L13 13L13 14L12 14L12 13L10 13L10 14L12 14L12 15L11 15L11 16L12 16L12 17L11 17L11 18L12 18L12 17L15 17L15 18L17 18L17 19L18 19L18 17L16 17L16 16L17 16L17 14L18 14L18 16L19 16L19 15L20 15L20 13L19 13L19 14L18 14L18 13L17 13L17 12L18 12L18 11L17 11L17 10L16 10L16 11L15 11L15 10ZM3 12L3 13L5 13L5 12ZM13 18L13 19L14 19L14 20L15 20L15 19L14 19L14 18ZM0 0L0 7L7 7L7 0ZM1 1L1 6L6 6L6 1ZM2 2L2 5L5 5L5 2ZM14 0L14 7L21 7L21 0ZM15 1L15 6L20 6L20 1ZM16 2L16 5L19 5L19 2ZM0 14L0 21L7 21L7 14ZM1 15L1 20L6 20L6 15ZM2 16L2 19L5 19L5 16Z" fill="#000000"/></g></g></svg>
