<?xml version="1.0" encoding="UTF-8"?>
<svg xmlns="http://www.w3.org/2000/svg" version="1.1" width="300" height="300" viewBox="0 0 300 300"><rect x="0" y="0" width="300" height="300" fill="#ffffff"/><g transform="scale(12)"><g transform="translate(2,2)"><path fill-rule="evenodd" d="M8 0L8 1L9 1L9 2L8 2L8 5L11 5L11 4L12 4L12 3L13 3L13 0L12 0L12 3L11 3L11 2L10 2L10 0ZM9 2L9 4L11 4L11 3L10 3L10 2ZM8 6L8 7L9 7L9 8L8 8L8 9L9 9L9 10L8 10L8 11L7 11L7 10L6 10L6 9L7 9L7 8L6 8L6 9L4 9L4 8L0 8L0 9L4 9L4 10L3 10L3 11L2 11L2 10L0 10L0 11L1 11L1 12L0 12L0 13L1 13L1 12L2 12L2 13L4 13L4 12L5 12L5 13L7 13L7 12L8 12L8 11L9 11L9 13L8 13L8 14L9 14L9 13L10 13L10 11L11 11L11 6L10 6L10 7L9 7L9 6ZM12 6L12 7L13 7L13 6ZM9 8L9 9L10 9L10 8ZM13 8L13 9L12 9L12 12L11 12L11 14L10 14L10 18L11 18L11 14L12 14L12 12L14 12L14 8ZM16 8L16 9L15 9L15 11L17 11L17 12L15 12L15 13L14 13L14 14L13 14L13 15L12 15L12 18L15 18L15 19L13 19L13 20L12 20L12 21L14 21L14 20L15 20L15 19L16 19L16 20L17 20L17 21L20 21L20 20L17 20L17 18L15 18L15 17L13 17L13 15L15 15L15 14L16 14L16 17L19 17L19 18L18 18L18 19L19 19L19 18L20 18L20 17L19 17L19 15L18 15L18 14L20 14L20 15L21 15L21 13L19 13L19 12L21 12L21 8L20 8L20 10L17 10L17 9L19 9L19 8ZM9 10L9 11L10 11L10 10ZM6 11L6 12L7 12L7 11ZM18 11L18 12L17 12L17 13L16 13L16 14L17 14L17 13L18 13L18 12L19 12L19 11ZM17 15L17 16L18 16L18 15ZM8 17L8 21L11 21L11 19L10 19L10 20L9 20L9 17ZM0 0L0 7L7 7L7 0ZM1 1L1 6L6 6L6 1ZM2 2L2 5L5 5L5 2ZM14 0L14 7L21 7L21 0ZM15 1L15 6L20 6L20 1ZM16 2L16 5L19 5L19 2ZM0 14L0 21L7 21L7 14ZM1 15L1 20L6 20L6 15ZM2 16L2 19L5 19L5 16Z" fill="#000000"/></g></g></svg>
