<?xml version="1.0" encoding="UTF-8"?>
<svg xmlns="http://www.w3.org/2000/svg" version="1.1" width="300" height="300" viewBox="0 0 300 300"><rect x="0" y="0" width="300" height="300" fill="#ffffff"/><g transform="scale(12)"><g transform="translate(2,2)"><path fill-rule="evenodd" d="M10 0L10 1L11 1L11 0ZM12 0L12 2L13 2L13 0ZM8 2L8 3L9 3L9 2ZM10 2L10 3L11 3L11 2ZM12 3L12 4L11 4L11 5L10 5L10 4L9 4L9 6L8 6L8 8L4 8L4 10L3 10L3 8L0 8L0 9L2 9L2 11L1 11L1 10L0 10L0 12L2 12L2 13L3 13L3 12L2 12L2 11L4 11L4 12L5 12L5 10L6 10L6 11L7 11L7 12L6 12L6 13L7 13L7 12L9 12L9 13L8 13L8 17L9 17L9 18L8 18L8 21L9 21L9 18L10 18L10 17L11 17L11 19L10 19L10 20L11 20L11 21L12 21L12 20L13 20L13 21L17 21L17 20L18 20L18 21L19 21L19 20L20 20L20 21L21 21L21 18L20 18L20 17L21 17L21 16L19 16L19 15L20 15L20 13L21 13L21 10L20 10L20 9L19 9L19 8L18 8L18 9L17 9L17 10L15 10L15 8L12 8L12 9L11 9L11 6L12 6L12 7L13 7L13 6L12 6L12 5L13 5L13 3ZM9 6L9 9L6 9L6 10L8 10L8 11L9 11L9 12L10 12L10 10L11 10L11 9L10 9L10 6ZM12 9L12 11L14 11L14 12L12 12L12 13L9 13L9 14L10 14L10 15L9 15L9 17L10 17L10 15L11 15L11 17L12 17L12 19L13 19L13 17L14 17L14 18L17 18L17 19L16 19L16 20L17 20L17 19L18 19L18 20L19 20L19 19L20 19L20 18L18 18L18 15L19 15L19 13L18 13L18 12L20 12L20 11L18 11L18 12L17 12L17 13L16 13L16 11L14 11L14 10L13 10L13 9ZM14 12L14 14L15 14L15 12ZM17 13L17 15L18 15L18 13ZM12 14L12 15L13 15L13 14ZM14 15L14 17L15 17L15 16L16 16L16 17L17 17L17 16L16 16L16 15ZM12 16L12 17L13 17L13 16ZM14 19L14 20L15 20L15 19ZM0 0L0 7L7 7L7 0ZM1 1L1 6L6 6L6 1ZM2 2L2 5L5 5L5 2ZM14 0L14 7L21 7L21 0ZM15 1L15 6L20 6L20 1ZM16 2L16 5L19 5L19 2ZM0 14L0 21L7 21L7 14ZM1 15L1 20L6 20L6 15ZM2 16L2 19L5 19L5 16Z" fill="#000000"/></g></g></svg>
