<?xml version="1.0" encoding="UTF-8"?>
<svg xmlns="http://www.w3.org/2000/svg" version="1.1" width="300" height="300" viewBox="0 0 300 300"><rect x="0" y="0" width="300" height="300" fill="#ffffff"/><g transform="scale(12)"><g transform="translate(2,2)"><path fill-rule="evenodd" d="M8 0L8 2L9 2L9 4L8 4L8 9L9 9L9 11L8 11L8 12L9 12L9 13L8 13L8 14L9 14L9 15L8 15L8 16L9 16L9 17L10 17L10 16L11 16L11 17L13 17L13 19L12 19L12 20L13 20L13 21L15 21L15 20L16 20L16 19L17 19L17 17L19 17L19 16L20 16L20 17L21 17L21 12L19 12L19 10L20 10L20 11L21 11L21 10L20 10L20 9L21 9L21 8L19 8L19 10L18 10L18 9L17 9L17 8L12 8L12 7L13 7L13 6L12 6L12 7L11 7L11 5L10 5L10 7L9 7L9 4L10 4L10 3L11 3L11 4L12 4L12 5L13 5L13 3L12 3L12 2L13 2L13 0ZM10 1L10 2L11 2L11 1ZM0 8L0 10L2 10L2 11L3 11L3 10L4 10L4 12L3 12L3 13L5 13L5 12L6 12L6 13L7 13L7 12L6 12L6 11L7 11L7 10L6 10L6 9L7 9L7 8L5 8L5 10L4 10L4 9L3 9L3 8ZM2 9L2 10L3 10L3 9ZM11 9L11 10L10 10L10 11L9 11L9 12L10 12L10 13L9 13L9 14L11 14L11 13L12 13L12 14L13 14L13 15L12 15L12 16L16 16L16 17L14 17L14 18L15 18L15 19L13 19L13 20L15 20L15 19L16 19L16 17L17 17L17 16L18 16L18 15L14 15L14 14L13 14L13 12L12 12L12 11L13 11L13 9ZM14 9L14 13L15 13L15 10L17 10L17 14L18 14L18 10L17 10L17 9ZM0 11L0 13L2 13L2 12L1 12L1 11ZM10 11L10 12L11 12L11 11ZM19 13L19 14L20 14L20 13ZM9 15L9 16L10 16L10 15ZM8 18L8 21L9 21L9 19L10 19L10 21L11 21L11 19L10 19L10 18ZM18 18L18 19L20 19L20 20L18 20L18 21L21 21L21 18ZM0 0L0 7L7 7L7 0ZM1 1L1 6L6 6L6 1ZM2 2L2 5L5 5L5 2ZM14 0L14 7L21 7L21 0ZM15 1L15 6L20 6L20 1ZM16 2L16 5L19 5L19 2ZM0 14L0 21L7 21L7 14ZM1 15L1 20L6 20L6 15ZM2 16L2 19L5 19L5 16Z" fill="#000000"/></g></g></svg>
