<?xml version="1.0" encoding="UTF-8"?>
<svg xmlns="http://www.w3.org/2000/svg" version="1.1" width="300" height="300" viewBox="0 0 300 300"><rect x="0" y="0" width="300" height="300" fill="#ffffff"/><g transform="scale(12)"><g transform="translate(2,2)"><path fill-rule="evenodd" d="M8 0L8 4L9 4L9 5L8 5L8 7L9 7L9 5L10 5L10 7L11 7L11 5L12 5L12 7L13 7L13 2L12 2L12 1L13 1L13 0L12 0L12 1L11 1L11 2L10 2L10 1L9 1L9 0ZM9 3L9 4L10 4L10 3ZM11 3L11 4L12 4L12 3ZM0 8L0 9L2 9L2 8ZM4 8L4 9L7 9L7 10L0 10L0 13L3 13L3 12L1 12L1 11L7 11L7 12L6 12L6 13L8 13L8 14L9 14L9 15L8 15L8 17L9 17L9 19L8 19L8 21L9 21L9 19L10 19L10 20L12 20L12 18L13 18L13 17L14 17L14 21L15 21L15 20L17 20L17 19L18 19L18 21L21 21L21 19L20 19L20 20L19 20L19 19L18 19L18 17L19 17L19 18L21 18L21 17L20 17L20 16L18 16L18 15L20 15L20 14L21 14L21 11L20 11L20 10L16 10L16 12L18 12L18 11L20 11L20 12L19 12L19 14L17 14L17 13L16 13L16 14L17 14L17 15L15 15L15 16L14 16L14 14L13 14L13 13L12 13L12 12L14 12L14 13L15 13L15 12L14 12L14 11L15 11L15 9L16 9L16 8L15 8L15 9L14 9L14 11L13 11L13 8L12 8L12 11L10 11L10 10L11 10L11 9L10 9L10 10L8 10L8 9L7 9L7 8ZM17 8L17 9L21 9L21 8ZM7 10L7 11L8 11L8 12L9 12L9 13L11 13L11 14L10 14L10 15L11 15L11 14L12 14L12 16L9 16L9 17L10 17L10 19L11 19L11 18L12 18L12 16L13 16L13 14L12 14L12 13L11 13L11 12L9 12L9 11L8 11L8 10ZM15 16L15 18L17 18L17 17L18 17L18 16ZM0 0L0 7L7 7L7 0ZM1 1L1 6L6 6L6 1ZM2 2L2 5L5 5L5 2ZM14 0L14 7L21 7L21 0ZM15 1L15 6L20 6L20 1ZM16 2L16 5L19 5L19 2ZM0 14L0 21L7 21L7 14ZM1 15L1 20L6 20L6 15ZM2 16L2 19L5 19L5 16Z" fill="#000000"/></g></g></svg>
