<?xml version="1.0" encoding="UTF-8"?>
<svg xmlns="http://www.w3.org/2000/svg" version="1.1" width="300" height="300" viewBox="0 0 300 300"><rect x="0" y="0" width="300" height="300" fill="#ffffff"/><g transform="scale(12)"><g transform="translate(2,2)"><path fill-rule="evenodd" d="M9 0L9 2L8 2L8 3L9 3L9 4L10 4L10 5L11 5L11 4L13 4L13 2L12 2L12 1L13 1L13 0L12 0L12 1L10 1L10 0ZM10 2L10 4L11 4L11 3L12 3L12 2ZM12 5L12 7L11 7L11 6L10 6L10 7L9 7L9 6L8 6L8 8L4 8L4 9L3 9L3 8L0 8L0 10L2 10L2 11L1 11L1 12L0 12L0 13L3 13L3 12L2 12L2 11L4 11L4 12L5 12L5 10L6 10L6 11L9 11L9 9L11 9L11 11L10 11L10 12L9 12L9 13L8 13L8 17L9 17L9 18L8 18L8 21L9 21L9 18L11 18L11 19L10 19L10 20L11 20L11 21L13 21L13 20L14 20L14 21L15 21L15 20L16 20L16 18L15 18L15 17L19 17L19 18L17 18L17 19L19 19L19 20L17 20L17 21L19 21L19 20L20 20L20 21L21 21L21 18L20 18L20 17L19 17L19 16L21 16L21 15L18 15L18 13L19 13L19 14L21 14L21 12L20 12L20 11L19 11L19 12L18 12L18 11L17 11L17 10L20 10L20 9L19 9L19 8L18 8L18 9L17 9L17 10L16 10L16 9L15 9L15 8L13 8L13 9L11 9L11 8L12 8L12 7L13 7L13 5ZM10 7L10 8L11 8L11 7ZM4 9L4 10L5 10L5 9ZM6 9L6 10L7 10L7 9ZM14 10L14 11L12 11L12 12L13 12L13 13L14 13L14 14L13 14L13 15L12 15L12 16L11 16L11 15L10 15L10 14L12 14L12 13L9 13L9 16L11 16L11 17L12 17L12 18L13 18L13 19L14 19L14 20L15 20L15 19L14 19L14 17L12 17L12 16L13 16L13 15L14 15L14 16L16 16L16 13L14 13L14 12L16 12L16 10ZM6 12L6 13L7 13L7 12ZM19 12L19 13L20 13L20 12ZM14 14L14 15L15 15L15 14ZM17 15L17 16L18 16L18 15ZM19 18L19 19L20 19L20 18ZM0 0L0 7L7 7L7 0ZM1 1L1 6L6 6L6 1ZM2 2L2 5L5 5L5 2ZM14 0L14 7L21 7L21 0ZM15 1L15 6L20 6L20 1ZM16 2L16 5L19 5L19 2ZM0 14L0 21L7 21L7 14ZM1 15L1 20L6 20L6 15ZM2 16L2 19L5 19L5 16Z" fill="#000000"/></g></g></svg>
