<?xml version="1.0" encoding="UTF-8"?>
<svg xmlns="http://www.w3.org/2000/svg" version="1.1" width="300" height="300" viewBox="0 0 300 300"><rect x="0" y="0" width="300" height="300" fill="#ffffff"/><g transform="scale(12)"><g transform="translate(2,2)"><path fill-rule="evenodd" d="M8 0L8 1L9 1L9 2L8 2L8 5L11 5L11 4L12 4L12 3L13 3L13 0L12 0L12 3L11 3L11 2L10 2L10 0ZM9 2L9 4L11 4L11 3L10 3L10 2ZM8 6L8 7L9 7L9 8L8 8L8 9L7 9L7 8L6 8L6 9L5 9L5 11L3 11L3 9L4 9L4 8L0 8L0 10L2 10L2 12L1 12L1 11L0 11L0 13L2 13L2 12L6 12L6 13L8 13L8 14L9 14L9 15L11 15L11 14L12 14L12 12L13 12L13 11L15 11L15 10L13 10L13 9L14 9L14 8L13 8L13 9L12 9L12 12L11 12L11 6L10 6L10 7L9 7L9 6ZM12 6L12 7L13 7L13 6ZM9 8L9 9L8 9L8 10L7 10L7 9L6 9L6 10L7 10L7 11L6 11L6 12L8 12L8 13L9 13L9 14L11 14L11 12L10 12L10 11L8 11L8 10L9 10L9 9L10 9L10 8ZM16 8L16 9L19 9L19 10L17 10L17 12L18 12L18 11L19 11L19 10L21 10L21 8L20 8L20 9L19 9L19 8ZM20 11L20 13L21 13L21 11ZM9 12L9 13L10 13L10 12ZM15 12L15 13L14 13L14 14L13 14L13 15L12 15L12 16L10 16L10 18L9 18L9 17L8 17L8 21L11 21L11 19L10 19L10 18L11 18L11 17L12 17L12 16L13 16L13 15L17 15L17 16L15 16L15 17L13 17L13 18L12 18L12 19L14 19L14 20L15 20L15 21L16 21L16 19L19 19L19 18L20 18L20 17L19 17L19 18L18 18L18 16L19 16L19 15L20 15L20 14L19 14L19 15L18 15L18 14L15 14L15 13L16 13L16 12ZM15 17L15 18L14 18L14 19L15 19L15 18L16 18L16 17ZM9 19L9 20L10 20L10 19ZM12 20L12 21L13 21L13 20ZM18 20L18 21L20 21L20 20ZM0 0L0 7L7 7L7 0ZM1 1L1 6L6 6L6 1ZM2 2L2 5L5 5L5 2ZM14 0L14 7L21 7L21 0ZM15 1L15 6L20 6L20 1ZM16 2L16 5L19 5L19 2ZM0 14L0 21L7 21L7 14ZM1 15L1 20L6 20L6 15ZM2 16L2 19L5 19L5 16Z" fill="#000000"/></g></g></svg>
