<?xml version="1.0" encoding="UTF-8"?>
<svg xmlns="http://www.w3.org/2000/svg" version="1.1" width="300" height="300" viewBox="0 0 300 300"><rect x="0" y="0" width="300" height="300" fill="#ffffff"/><g transform="scale(12)"><g transform="translate(2,2)"><path fill-rule="evenodd" d="M8 0L8 1L9 1L9 0ZM10 0L10 2L8 2L8 5L9 5L9 6L8 6L8 7L9 7L9 6L10 6L10 7L11 7L11 8L8 8L8 10L6 10L6 9L7 9L7 8L6 8L6 9L4 9L4 8L0 8L0 9L4 9L4 10L5 10L5 11L3 11L3 10L2 10L2 11L3 11L3 13L4 13L4 12L6 12L6 13L7 13L7 12L8 12L8 14L9 14L9 17L8 17L8 21L9 21L9 19L10 19L10 18L11 18L11 17L10 17L10 16L11 16L11 15L13 15L13 16L12 16L12 17L13 17L13 16L14 16L14 18L12 18L12 19L11 19L11 20L12 20L12 19L13 19L13 21L15 21L15 19L14 19L14 18L16 18L16 19L19 19L19 18L20 18L20 17L21 17L21 14L18 14L18 13L19 13L19 12L20 12L20 10L19 10L19 12L18 12L18 13L17 13L17 11L16 11L16 12L15 12L15 13L14 13L14 14L12 14L12 13L13 13L13 12L12 12L12 10L13 10L13 11L15 11L15 10L13 10L13 9L14 9L14 8L13 8L13 5L12 5L12 4L13 4L13 3L12 3L12 1L13 1L13 0ZM10 2L10 4L9 4L9 5L11 5L11 4L12 4L12 3L11 3L11 2ZM11 6L11 7L12 7L12 6ZM16 8L16 9L19 9L19 8ZM20 8L20 9L21 9L21 8ZM0 10L0 12L1 12L1 13L2 13L2 12L1 12L1 10ZM8 10L8 12L11 12L11 13L10 13L10 15L11 15L11 13L12 13L12 12L11 12L11 10ZM6 11L6 12L7 12L7 11ZM15 14L15 15L14 15L14 16L16 16L16 17L18 17L18 18L19 18L19 15L18 15L18 16L16 16L16 14ZM9 17L9 18L10 18L10 17ZM17 20L17 21L18 21L18 20ZM19 20L19 21L20 21L20 20ZM0 0L0 7L7 7L7 0ZM1 1L1 6L6 6L6 1ZM2 2L2 5L5 5L5 2ZM14 0L14 7L21 7L21 0ZM15 1L15 6L20 6L20 1ZM16 2L16 5L19 5L19 2ZM0 14L0 21L7 21L7 14ZM1 15L1 20L6 20L6 15ZM2 16L2 19L5 19L5 16Z" fill="#000000"/></g></g></svg>
