<?xml version="1.0" encoding="UTF-8"?>
<svg xmlns="http://www.w3.org/2000/svg" version="1.1" width="300" height="300" viewBox="0 0 300 300"><rect x="0" y="0" width="300" height="300" fill="#ffffff"/><g transform="scale(12)"><g transform="translate(2,2)"><path fill-rule="evenodd" d="M8 0L8 1L9 1L9 0ZM10 0L10 2L8 2L8 5L9 5L9 6L8 6L8 7L9 7L9 6L10 6L10 7L11 7L11 8L8 8L8 9L7 9L7 8L6 8L6 9L4 9L4 8L0 8L0 13L1 13L1 12L2 12L2 13L3 13L3 12L4 12L4 13L5 13L5 11L3 11L3 9L4 9L4 10L6 10L6 11L7 11L7 12L6 12L6 13L8 13L8 14L9 14L9 15L10 15L10 16L9 16L9 17L8 17L8 21L11 21L11 20L12 20L12 19L13 19L13 20L15 20L15 21L17 21L17 19L19 19L19 18L20 18L20 17L21 17L21 13L20 13L20 12L21 12L21 11L20 11L20 10L17 10L17 12L18 12L18 11L20 11L20 12L19 12L19 13L18 13L18 14L17 14L17 13L16 13L16 12L12 12L12 10L13 10L13 11L16 11L16 10L15 10L15 9L14 9L14 8L13 8L13 5L12 5L12 4L13 4L13 3L12 3L12 1L13 1L13 0ZM10 2L10 4L9 4L9 5L11 5L11 4L12 4L12 3L11 3L11 2ZM11 6L11 7L12 7L12 6ZM16 8L16 9L19 9L19 8ZM20 8L20 9L21 9L21 8ZM6 9L6 10L7 10L7 11L8 11L8 10L9 10L9 12L10 12L10 15L11 15L11 16L10 16L10 17L9 17L9 18L10 18L10 17L11 17L11 19L10 19L10 20L11 20L11 19L12 19L12 18L13 18L13 17L12 17L12 16L13 16L13 15L11 15L11 13L12 13L12 14L14 14L14 15L15 15L15 14L14 14L14 13L12 13L12 12L10 12L10 10L11 10L11 9L8 9L8 10L7 10L7 9ZM1 10L1 11L2 11L2 10ZM19 13L19 14L18 14L18 15L20 15L20 13ZM15 16L15 17L14 17L14 19L15 19L15 20L16 20L16 19L15 19L15 17L16 17L16 18L17 18L17 16ZM18 16L18 18L19 18L19 16ZM18 20L18 21L20 21L20 20ZM0 0L0 7L7 7L7 0ZM1 1L1 6L6 6L6 1ZM2 2L2 5L5 5L5 2ZM14 0L14 7L21 7L21 0ZM15 1L15 6L20 6L20 1ZM16 2L16 5L19 5L19 2ZM0 14L0 21L7 21L7 14ZM1 15L1 20L6 20L6 15ZM2 16L2 19L5 19L5 16Z" fill="#000000"/></g></g></svg>
