<?xml version="1.0" encoding="UTF-8"?>
<svg xmlns="http://www.w3.org/2000/svg" version="1.1" width="300" height="300" viewBox="0 0 300 300"><rect x="0" y="0" width="300" height="300" fill="#ffffff"/><g transform="scale(12)"><g transform="translate(2,2)"><path fill-rule="evenodd" d="M9 0L9 2L8 2L8 3L9 3L9 4L10 4L10 5L11 5L11 4L13 4L13 2L12 2L12 1L13 1L13 0L12 0L12 1L10 1L10 0ZM10 2L10 4L11 4L11 3L12 3L12 2ZM12 5L12 7L11 7L11 6L10 6L10 7L9 7L9 6L8 6L8 8L4 8L4 9L3 9L3 8L0 8L0 9L3 9L3 10L2 10L2 13L4 13L4 12L5 12L5 13L8 13L8 17L9 17L9 18L8 18L8 21L14 21L14 20L13 20L13 19L12 19L12 17L13 17L13 18L14 18L14 19L15 19L15 20L16 20L16 18L15 18L15 17L19 17L19 18L17 18L17 19L19 19L19 20L17 20L17 21L19 21L19 20L20 20L20 21L21 21L21 18L20 18L20 17L19 17L19 16L21 16L21 15L20 15L20 14L19 14L19 10L20 10L20 13L21 13L21 9L19 9L19 8L18 8L18 9L19 9L19 10L18 10L18 13L16 13L16 16L15 16L15 14L14 14L14 13L13 13L13 12L14 12L14 11L15 11L15 12L17 12L17 10L16 10L16 11L15 11L15 8L13 8L13 9L11 9L11 8L12 8L12 7L13 7L13 5ZM10 7L10 8L11 8L11 7ZM4 9L4 10L5 10L5 11L6 11L6 12L7 12L7 11L9 11L9 10L7 10L7 9L6 9L6 10L5 10L5 9ZM10 9L10 11L11 11L11 9ZM13 9L13 11L12 11L12 12L13 12L13 11L14 11L14 9ZM0 10L0 12L1 12L1 10ZM6 10L6 11L7 11L7 10ZM3 11L3 12L4 12L4 11ZM9 12L9 13L10 13L10 12ZM11 13L11 14L12 14L12 13ZM13 14L13 15L12 15L12 16L11 16L11 15L9 15L9 16L11 16L11 17L10 17L10 18L9 18L9 19L10 19L10 20L11 20L11 17L12 17L12 16L13 16L13 15L14 15L14 14ZM18 14L18 15L17 15L17 16L18 16L18 15L19 15L19 14ZM14 16L14 17L15 17L15 16ZM19 18L19 19L20 19L20 18ZM0 0L0 7L7 7L7 0ZM1 1L1 6L6 6L6 1ZM2 2L2 5L5 5L5 2ZM14 0L14 7L21 7L21 0ZM15 1L15 6L20 6L20 1ZM16 2L16 5L19 5L19 2ZM0 14L0 21L7 21L7 14ZM1 15L1 20L6 20L6 15ZM2 16L2 19L5 19L5 16Z" fill="#000000"/></g></g></svg>
