<?xml version="1.0" encoding="UTF-8"?>
<svg xmlns="http://www.w3.org/2000/svg" version="1.1" width="300" height="300" viewBox="0 0 300 300"><rect x="0" y="0" width="300" height="300" fill="#ffffff"/><g transform="scale(12)"><g transform="translate(2,2)"><path fill-rule="evenodd" d="M12 0L12 2L11 2L11 1L10 1L10 4L9 4L9 3L8 3L8 5L9 5L9 6L8 6L8 7L9 7L9 6L10 6L10 7L11 7L11 6L12 6L12 7L13 7L13 6L12 6L12 5L13 5L13 0ZM11 3L11 4L10 4L10 6L11 6L11 5L12 5L12 3ZM0 8L0 11L1 11L1 12L2 12L2 11L3 11L3 9L2 9L2 8ZM5 8L5 9L4 9L4 12L3 12L3 13L4 13L4 12L5 12L5 13L7 13L7 12L5 12L5 9L7 9L7 10L6 10L6 11L9 11L9 13L8 13L8 16L9 16L9 18L10 18L10 19L12 19L12 21L13 21L13 20L14 20L14 21L19 21L19 19L20 19L20 20L21 20L21 18L19 18L19 17L20 17L20 15L21 15L21 12L20 12L20 13L19 13L19 10L20 10L20 9L19 9L19 10L17 10L17 9L18 9L18 8L16 8L16 9L14 9L14 10L13 10L13 9L12 9L12 8L11 8L11 10L12 10L12 11L9 11L9 10L10 10L10 9L9 9L9 10L8 10L8 8ZM1 9L1 11L2 11L2 9ZM14 10L14 12L16 12L16 13L17 13L17 14L16 14L16 16L13 16L13 15L14 15L14 14L15 14L15 13L13 13L13 14L12 14L12 13L11 13L11 14L10 14L10 13L9 13L9 16L10 16L10 18L12 18L12 17L16 17L16 18L15 18L15 19L14 19L14 18L13 18L13 19L14 19L14 20L17 20L17 19L18 19L18 18L17 18L17 14L18 14L18 16L19 16L19 15L20 15L20 14L18 14L18 13L17 13L17 12L18 12L18 11L17 11L17 10L16 10L16 11L15 11L15 10ZM11 14L11 15L10 15L10 16L11 16L11 17L12 17L12 16L11 16L11 15L12 15L12 14ZM8 19L8 21L9 21L9 19ZM0 0L0 7L7 7L7 0ZM1 1L1 6L6 6L6 1ZM2 2L2 5L5 5L5 2ZM14 0L14 7L21 7L21 0ZM15 1L15 6L20 6L20 1ZM16 2L16 5L19 5L19 2ZM0 14L0 21L7 21L7 14ZM1 15L1 20L6 20L6 15ZM2 16L2 19L5 19L5 16Z" fill="#000000"/></g></g></svg>
